<?xml version="1.0" encoding="UTF-8"?><svg id="logo" xmlns="http://www.w3.org/2000/svg" viewBox="0 0 698.64 143.05"><polygon points="241.69 90.26 241.69 0 162.94 0 139.79 0 134.95 0 0 0 25.4 27.01 61.41 27.01 61.41 142.03 100.21 142.03 100.21 27.01 134.94 27.01 134.94 142.03 173.49 142.03 173.49 90.66 173.49 65.06 173.49 28.03 203.14 28.03 203.14 65.06 183.64 65.06 183.64 90.66 183.67 90.66 206.57 142.03 245.25 142.03 220.82 90.26 241.69 90.26" fill="#010101"/><polygon points="399.19 71.74 373.75 1.02 360.1 1.02 329.22 1.02 329.22 116.14 297.66 116.14 297.66 1.02 259.11 1.02 259.11 143.05 329.22 143.05 359.59 143.05 364.84 143.05 364.84 54.65 393.46 143.05 404.91 143.05 433.54 54.65 433.54 143.05 469.16 143.05 469.16 1.02 424.64 1.02 399.19 71.74" fill="#010101"/><polygon points="673.33 1.02 580.03 1.02 577.81 1.02 576.86 1.02 488.5 1.02 488.5 143.05 579.08 143.05 579.08 116.14 527.18 116.14 527.18 81.96 575.26 81.96 575.26 55.44 526.66 55.44 526.66 28.03 580.03 28.03 592.2 28.03 613.65 28.03 613.65 143.05 652.45 143.05 652.45 28.03 698.64 28.03 673.33 1.02" fill="#010101"/></svg>